<?xml version="1.0" encoding="utf-8"?>
<!-- Generator: Adobe Illustrator 19.1.0, SVG Export Plug-In . SVG Version: 6.00 Build 0)  -->
<svg version="1.1" xmlns="http://www.w3.org/2000/svg" xmlns:xlink="http://www.w3.org/1999/xlink" x="0px" y="0px"
	 viewBox="0 0 56.7 56.7" style="enable-background:new 0 0 56.7 56.7;" xml:space="preserve">
<style type="text/css">
	.st0{fill:none;stroke:#FF0000;stroke-width:0.2835;stroke-miterlimit:10;}
</style>
<g id="Layer_1">
	<rect width="56.7" height="56.7"/>
</g>
<g id="Layer_2">
	<line class="st0" x1="28.3" y1="28.3" x2="28.3" y2="0"/>
	<line class="st0" x1="38.3" y1="28.3" x2="38.3" y2="0"/>
	<line class="st0" x1="48.3" y1="28.3" x2="48.3" y2="0"/>
	<line class="st0" x1="18.3" y1="28.3" x2="18.3" y2="0"/>
	<line class="st0" x1="8.3" y1="28.3" x2="8.3" y2="0"/>
	<line class="st0" x1="28.3" y1="56.7" x2="28.3" y2="28.3"/>
	<line class="st0" x1="38.3" y1="56.7" x2="38.3" y2="28.3"/>
	<line class="st0" x1="48.3" y1="56.7" x2="48.3" y2="28.3"/>
	<line class="st0" x1="18.3" y1="56.7" x2="18.3" y2="28.3"/>
	<line class="st0" x1="8.3" y1="56.7" x2="8.3" y2="28.3"/>
	<line class="st0" x1="0" y1="28.3" x2="56.7" y2="28.3"/>
	<line class="st0" x1="0" y1="38.3" x2="56.7" y2="38.3"/>
	<line class="st0" x1="0" y1="48.3" x2="56.7" y2="48.3"/>
	<line class="st0" x1="0" y1="18.3" x2="56.7" y2="18.3"/>
	<line class="st0" x1="0" y1="8.3" x2="56.7" y2="8.3"/>
</g>
</svg>
