<?xml version="1.0" encoding="utf-8"?>
<!-- Generator: Adobe Illustrator 19.1.0, SVG Export Plug-In . SVG Version: 6.00 Build 0)  -->
<svg version="1.1" xmlns="http://www.w3.org/2000/svg" xmlns:xlink="http://www.w3.org/1999/xlink" x="0px" y="0px"
	 viewBox="0 0 56.7 56.7" style="enable-background:new 0 0 56.7 56.7;" xml:space="preserve">
<style type="text/css">
	.st0{fill:#FFFFFF;}
	.st1{fill:#FFFFFF;stroke:#000000;stroke-width:1.4173;stroke-miterlimit:10;}
	.st2{fill:none;stroke:#000000;stroke-width:2.8346;stroke-miterlimit:10;}
	.st3{fill:none;stroke:#000000;stroke-width:2.126;stroke-miterlimit:10;}
	.st4{fill:none;stroke:#000000;stroke-width:1.4173;stroke-miterlimit:10;}
	.st5{fill:none;stroke:#000000;stroke-width:1.1339;stroke-miterlimit:10;}
	.st6{fill:none;stroke:#000000;stroke-width:0.8504;stroke-miterlimit:10;}
	.st7{fill:none;stroke:#000000;stroke-width:0.5669;stroke-miterlimit:10;}
	.st8{fill:none;stroke:#000000;stroke-width:0.2835;stroke-miterlimit:10;}
	.st9{fill:none;stroke:#000000;stroke-width:0.1417;stroke-miterlimit:10;}
	.st10{fill:none;stroke:#FFFFFF;stroke-width:2.8346;stroke-miterlimit:10;}
	.st11{fill:none;stroke:#FFFFFF;stroke-width:2.126;stroke-miterlimit:10;}
	.st12{fill:none;stroke:#FFFFFF;stroke-width:1.4173;stroke-miterlimit:10;}
	.st13{fill:none;stroke:#FFFFFF;stroke-width:1.1339;stroke-miterlimit:10;}
	.st14{fill:none;stroke:#FFFFFF;stroke-width:0.8504;stroke-miterlimit:10;}
	.st15{fill:none;stroke:#FFFFFF;stroke-width:0.5669;stroke-miterlimit:10;}
	.st16{fill:none;stroke:#FFFFFF;stroke-width:0.2835;stroke-miterlimit:10;}
	.st17{fill:none;stroke:#FFFFFF;stroke-width:0.1417;stroke-miterlimit:10;}
	.st18{font-family:'MyriadPro-Regular';}
	.st19{font-size:1px;}
</style>
<g id="Layer_2">
	<rect x="-1.7" y="-2.3" class="st0" width="61" height="62.1"/>
</g>
<g id="Layer_1">
	<rect x="0.8" y="48.7" width="16.3" height="6.9"/>
	<polygon class="st1" points="2.9,7.7 1.1,4.6 2.9,1.5 6.5,1.5 8.3,4.6 6.5,7.7 	"/>
	<polygon class="st1" points="2.9,14 1.1,10.8 2.9,7.7 6.5,7.7 8.3,10.8 6.5,14 	"/>
	<polygon class="st1" points="2.9,20.2 1.1,17.1 2.9,14 6.5,14 8.3,17.1 6.5,20.2 	"/>
	<polygon class="st1" points="2.9,26.4 1.1,23.3 2.9,20.2 6.5,20.2 8.3,23.3 6.5,26.4 	"/>
	<polygon class="st1" points="8.3,10.8 6.5,7.7 8.3,4.6 11.9,4.6 13.7,7.7 11.9,10.8 	"/>
	<polygon class="st1" points="8.3,17.1 6.5,14 8.3,10.8 11.9,10.8 13.7,14 11.9,17.1 	"/>
	<polygon class="st1" points="8.3,23.3 6.5,20.2 8.3,17.1 11.9,17.1 13.7,20.2 11.9,23.3 	"/>
	<polygon class="st1" points="8.3,29.5 6.5,26.4 8.3,23.3 11.9,23.3 13.7,26.4 11.9,29.5 	"/>
	<polygon class="st1" points="13.7,7.7 11.9,4.6 13.7,1.5 17.3,1.5 19.1,4.6 17.3,7.7 	"/>
	<polygon class="st1" points="13.7,14 11.9,10.8 13.7,7.7 17.3,7.7 19.1,10.8 17.3,14 	"/>
	<polygon class="st1" points="13.7,20.2 11.9,17.1 13.7,14 17.3,14 19.1,17.1 17.3,20.2 	"/>
	<polygon class="st1" points="13.7,26.4 11.9,23.3 13.7,20.2 17.3,20.2 19.1,23.3 17.3,26.4 	"/>
	<polygon class="st1" points="19.1,10.8 17.3,7.7 19.1,4.6 22.7,4.6 24.5,7.7 22.7,10.8 	"/>
	<polygon class="st1" points="19.1,17.1 17.3,14 19.1,10.8 22.7,10.8 24.5,14 22.7,17.1 	"/>
	<polygon class="st1" points="19.1,23.3 17.3,20.2 19.1,17.1 22.7,17.1 24.5,20.2 22.7,23.3 	"/>
	<polygon class="st1" points="19.1,29.5 17.3,26.4 19.1,23.3 22.7,23.3 24.5,26.4 22.7,29.5 	"/>
	<line class="st2" x1="31" y1="0.6" x2="31" y2="14.8"/>
	<line class="st3" x1="34" y1="0.6" x2="34" y2="14.8"/>
	<line class="st4" x1="37" y1="0.6" x2="37" y2="14.8"/>
	<line class="st5" x1="40" y1="0.6" x2="40" y2="14.8"/>
	<line class="st6" x1="43" y1="0.6" x2="43" y2="14.8"/>
	<line class="st7" x1="46" y1="0.6" x2="46" y2="14.8"/>
	<line class="st8" x1="49" y1="0.6" x2="49" y2="14.8"/>
	<line class="st9" x1="52" y1="0.6" x2="52" y2="14.8"/>
	<rect x="27.3" y="15.4" width="28.3" height="14.2"/>
	<line class="st10" x1="31" y1="16.8" x2="31" y2="28.1"/>
	<line class="st11" x1="34" y1="16.8" x2="34" y2="28.1"/>
	<line class="st12" x1="37" y1="16.8" x2="37" y2="28.1"/>
	<line class="st13" x1="40" y1="16.8" x2="40" y2="28.1"/>
	<line class="st14" x1="43" y1="16.8" x2="43" y2="28.1"/>
	<line class="st15" x1="46" y1="16.8" x2="46" y2="28.1"/>
	<line class="st16" x1="49" y1="16.8" x2="49" y2="28.1"/>
	<line class="st17" x1="52" y1="16.8" x2="52" y2="28.1"/>
	<text transform="matrix(1 0 0 1 48.9897 54.5753)"><tspan x="0" y="0" class="st18 st19">lithoTest1.0</tspan><tspan x="0" y="1.2" class="st18 st19">Ithenium 2018</tspan></text>
	<rect x="0.8" y="31.9" width="1.4" height="1.4"/>
	<rect x="3.7" y="31.9" width="1.4" height="1.4"/>
	<rect x="5.1" y="33.3" width="1.4" height="1.4"/>
	<rect x="2.3" y="33.3" width="1.4" height="1.4"/>
	<rect x="6.5" y="31.9" width="1.4" height="1.4"/>
	<rect x="9.4" y="31.9" width="1.4" height="1.4"/>
	<rect x="10.8" y="33.3" width="1.4" height="1.4"/>
	<rect x="7.9" y="33.3" width="1.4" height="1.4"/>
	<rect x="0.8" y="34.7" width="1.4" height="1.4"/>
	<rect x="3.7" y="34.7" width="1.4" height="1.4"/>
	<rect x="5.1" y="36.1" width="1.4" height="1.4"/>
	<rect x="2.3" y="36.1" width="1.4" height="1.4"/>
	<rect x="6.5" y="34.7" width="1.4" height="1.4"/>
	<rect x="9.4" y="34.7" width="1.4" height="1.4"/>
	<rect x="10.8" y="36.1" width="1.4" height="1.4"/>
	<rect x="7.9" y="36.1" width="1.4" height="1.4"/>
	<rect x="0.8" y="37.5" width="1.4" height="1.4"/>
	<rect x="3.7" y="37.5" width="1.4" height="1.4"/>
	<rect x="5.1" y="38.9" width="1.4" height="1.4"/>
	<rect x="2.3" y="38.9" width="1.4" height="1.4"/>
	<rect x="6.5" y="37.5" width="1.4" height="1.4"/>
	<rect x="9.4" y="37.5" width="1.4" height="1.4"/>
	<rect x="10.8" y="38.9" width="1.4" height="1.4"/>
	<rect x="7.9" y="38.9" width="1.4" height="1.4"/>
	<text transform="matrix(1 0 0 1 0.582 30.1619)" class="st18 st19">2 inner, 0.5 wall</text>
	<rect x="15.5" y="32.8" width="0.6" height="0.6"/>
	<rect x="16.1" y="33.4" width="0.6" height="0.6"/>
	<rect x="16.6" y="32.8" width="0.6" height="0.6"/>
	<rect x="17.2" y="33.4" width="0.6" height="0.6"/>
	<rect x="17.8" y="32.8" width="0.6" height="0.6"/>
	<rect x="18.3" y="33.4" width="0.6" height="0.6"/>
	<rect x="18.9" y="32.8" width="0.6" height="0.6"/>
	<rect x="19.5" y="33.4" width="0.6" height="0.6"/>
	<rect x="15.5" y="33.9" width="0.6" height="0.6"/>
	<rect x="16.1" y="34.5" width="0.6" height="0.6"/>
	<rect x="16.6" y="33.9" width="0.6" height="0.6"/>
	<rect x="17.2" y="34.5" width="0.6" height="0.6"/>
	<rect x="17.8" y="33.9" width="0.6" height="0.6"/>
	<rect x="18.3" y="34.5" width="0.6" height="0.6"/>
	<rect x="18.9" y="33.9" width="0.6" height="0.6"/>
	<rect x="19.5" y="34.5" width="0.6" height="0.6"/>
	<rect x="15.5" y="35.1" width="0.6" height="0.6"/>
	<rect x="16.1" y="35.6" width="0.6" height="0.6"/>
	<rect x="16.6" y="35.1" width="0.6" height="0.6"/>
	<rect x="17.2" y="35.6" width="0.6" height="0.6"/>
	<rect x="17.8" y="35.1" width="0.6" height="0.6"/>
	<rect x="18.3" y="35.6" width="0.6" height="0.6"/>
	<rect x="18.9" y="35.1" width="0.6" height="0.6"/>
	<rect x="19.5" y="35.6" width="0.6" height="0.6"/>
	<rect x="15.5" y="36.2" width="0.6" height="0.6"/>
	<rect x="16.1" y="36.8" width="0.6" height="0.6"/>
	<rect x="16.6" y="36.2" width="0.6" height="0.6"/>
	<rect x="17.2" y="36.8" width="0.6" height="0.6"/>
	<rect x="17.8" y="36.2" width="0.6" height="0.6"/>
	<rect x="18.3" y="36.8" width="0.6" height="0.6"/>
	<rect x="18.9" y="36.2" width="0.6" height="0.6"/>
	<rect x="19.5" y="36.8" width="0.6" height="0.6"/>
	<text transform="matrix(1 0 0 1 0.847 41.7452)" class="st18 st19">0.5</text>
	<text transform="matrix(1 0 0 1 15.5141 38.4208)" class="st18 st19">0.2</text>
	<text transform="matrix(1 0 0 1 27.3166 31.566)" class="st18 st19">1, 0.75, 0.5, 0.4, 0.3, 0.2, 0.1, 0.05</text>
	<circle cx="3.7" cy="45.3" r="2.8"/>
	<circle cx="8.6" cy="45.3" r="1.4"/>
	<circle cx="11.3" cy="45.3" r="0.7"/>
	<circle cx="13.4" cy="45.3" r="0.6"/>
	<circle cx="14.7" cy="45.3" r="0.3"/>
	<circle cx="15.7" cy="45.3" r="0.1"/>
	<circle cx="16.3" cy="45.3" r="0.1"/>
	<circle class="st0" cx="4.1" cy="52.3" r="2.8"/>
	<circle class="st0" cx="9" cy="52.3" r="1.4"/>
	<circle class="st0" cx="11.6" cy="52.3" r="0.7"/>
	<circle class="st0" cx="13.7" cy="52.3" r="0.6"/>
	<circle class="st0" cx="15.1" cy="52.3" r="0.3"/>
	<circle class="st0" cx="16.1" cy="52.3" r="0.1"/>
	<circle class="st0" cx="16.7" cy="52.3" r="0.1"/>
</g>
</svg>
